<svg width="19" height="17" viewBox="0 0 19 17" fill="none" xmlns="http://www.w3.org/2000/svg">
<g clip-path="url(#clip0_4061_6264)">
<path fill-rule="evenodd" clip-rule="evenodd" d="M3.95263 14.9599C3.95424 15.954 4.76143 16.7586 5.75554 16.757C6.15561 16.7564 6.54406 16.6224 6.85954 16.3764L9.8408 14.0515H15.4166C17.0734 14.0515 18.4166 12.7084 18.4166 11.0515V3.3999C18.4166 1.74305 17.0734 0.399902 15.4166 0.399902H3.58325C1.9264 0.399902 0.583252 1.74305 0.583252 3.3999V11.0515C0.583252 12.7084 1.9264 14.0515 3.58325 14.0515H3.95116L3.95263 14.9599ZM5.94955 13.0499C5.94865 12.4983 5.5012 12.0515 4.94955 12.0515H3.58325C3.03097 12.0515 2.58325 11.6038 2.58325 11.0515V3.3999C2.58325 2.84762 3.03097 2.3999 3.58325 2.3999H15.4166C15.9689 2.3999 16.4166 2.84762 16.4166 3.3999V11.0515C16.4166 11.6038 15.9689 12.0515 15.4166 12.0515H9.48258C9.19705 12.0515 8.94652 12.1686 8.76755 12.3522L5.95197 14.5479L5.94955 13.0499Z" fill="#FFC542"/>
</g>
<defs>
<clipPath id="clip0_4061_6264">
<rect width="19" height="17" fill="white"/>
</clipPath>
</defs>
</svg>
