<svg width="22" height="22" viewBox="0 0 22 22" fill="none" xmlns="http://www.w3.org/2000/svg">
<g clip-path="url(#clip0_11_2)">
<mask id="mask0_11_2" style="mask-type:luminance" maskUnits="userSpaceOnUse" x="0" y="0" width="22" height="22">
<path d="M22 0H0V22H22V0Z" fill="white"/>
</mask>
<g mask="url(#mask0_11_2)">
<path d="M11 5.49C9.90994 5.4898 8.84431 5.81287 7.93788 6.41835C7.03145 7.02383 6.32493 7.88452 5.90769 8.89157C5.49045 9.89861 5.38123 11.0068 5.59384 12.0759C5.80646 13.145 6.33135 14.1271 7.10214 14.8979C7.87292 15.6687 8.85498 16.1935 9.9241 16.4062C10.9932 16.6188 12.1014 16.5095 13.1084 16.0923C14.1155 15.6751 14.9762 14.9686 15.5816 14.0621C16.1871 13.1557 16.5102 12.0901 16.51 11C16.5081 9.53922 15.927 8.13881 14.8941 7.10589C13.8612 6.07296 12.4608 5.49185 11 5.49Z" fill="black"/>
<path d="M11 3.87C10.7158 3.87 10.4431 3.75743 10.2416 3.55691C10.0402 3.35639 9.92633 3.08424 9.925 2.8V1.075C9.925 0.789892 10.0383 0.516462 10.2399 0.31486C10.4415 0.113259 10.7149 0 11 0C11.2851 0 11.5585 0.113259 11.7601 0.31486C11.9617 0.516462 12.075 0.789892 12.075 1.075V2.8C12.0737 3.08424 11.9598 3.35639 11.7584 3.55691C11.5569 3.75743 11.2842 3.87 11 3.87Z" fill="black"/>
<path d="M11 18.13C10.7158 18.13 10.4431 18.2426 10.2416 18.4431C10.0402 18.6436 9.92633 18.9158 9.925 19.2V20.92C9.925 21.2051 10.0383 21.4785 10.2399 21.6801C10.4415 21.8817 10.7149 21.995 11 21.995C11.2851 21.995 11.5585 21.8817 11.7601 21.6801C11.9617 21.4785 12.075 21.2051 12.075 20.92V19.2C12.0737 18.9158 11.9598 18.6436 11.7584 18.4431C11.5569 18.2426 11.2842 18.13 11 18.13Z" fill="black"/>
<path d="M16.041 5.958C15.8397 5.75628 15.7267 5.48296 15.7267 5.198C15.7267 4.91304 15.8397 4.63972 16.041 4.438L17.257 3.222C17.3561 3.11903 17.4747 3.03686 17.6059 2.98027C17.7372 2.92369 17.8784 2.89385 18.0213 2.89247C18.1642 2.8911 18.3059 2.91824 18.4382 2.97229C18.5705 3.02635 18.6907 3.10624 18.7917 3.20729C18.8928 3.30834 18.9727 3.42852 19.0267 3.56081C19.0808 3.6931 19.1079 3.83483 19.1065 3.97773C19.1052 4.12063 19.0753 4.26183 19.0187 4.39305C18.9621 4.52428 18.88 4.64291 18.777 4.742L17.562 5.958C17.4622 6.05793 17.3436 6.13721 17.2131 6.1913C17.0826 6.24538 16.9428 6.27322 16.8015 6.27322C16.6602 6.27322 16.5204 6.24538 16.3899 6.1913C16.2594 6.13721 16.1408 6.05793 16.041 5.958Z" fill="black"/>
<path d="M5.958 16.042C5.85825 15.9421 5.73978 15.8628 5.60937 15.8088C5.47896 15.7547 5.33917 15.7269 5.198 15.7269C5.05683 15.7269 4.91704 15.7547 4.78663 15.8088C4.65622 15.8628 4.53775 15.9421 4.438 16.042L3.222 17.258C3.02678 17.4609 2.91893 17.7322 2.92163 18.0137C2.92433 18.2953 3.03736 18.5645 3.23644 18.7636C3.43551 18.9626 3.70474 19.0757 3.98627 19.0784C4.26779 19.0811 4.53914 18.9732 4.742 18.778L5.958 17.561C6.05775 17.4613 6.13688 17.3429 6.19086 17.2125C6.24485 17.0822 6.27263 16.9426 6.27263 16.8015C6.27263 16.6604 6.24485 16.5208 6.19086 16.3905C6.13688 16.2601 6.05775 16.1417 5.958 16.042Z" fill="black"/>
<path d="M18.13 11C18.13 10.7158 18.2426 10.4431 18.4431 10.2416C18.6436 10.0402 18.9158 9.92633 19.2 9.925H20.92C21.2051 9.925 21.4785 10.0383 21.6801 10.2399C21.8817 10.4415 21.995 10.7149 21.995 11C21.995 11.2851 21.8817 11.5585 21.6801 11.7601C21.4785 11.9617 21.2051 12.075 20.92 12.075H19.2C18.9158 12.0737 18.6436 11.9598 18.4431 11.7584C18.2426 11.5569 18.13 11.2842 18.13 11Z" fill="black"/>
<path d="M3.87 11C3.87 10.7149 3.75674 10.4415 3.55514 10.2399C3.35354 10.0383 3.08011 9.925 2.795 9.925H1.075C0.789892 9.925 0.516462 10.0383 0.31486 10.2399C0.113259 10.4415 0 10.7149 0 11C0 11.2851 0.113259 11.5585 0.31486 11.7601C0.516462 11.9617 0.789892 12.075 1.075 12.075H2.8C3.08424 12.0737 3.35639 11.9598 3.55691 11.7584C3.75743 11.5569 3.87 11.2842 3.87 11Z" fill="black"/>
<path d="M16.041 16.042C16.2427 15.8407 16.516 15.7277 16.801 15.7277C17.086 15.7277 17.3593 15.8407 17.561 16.042L18.777 17.258C18.88 17.3571 18.9622 17.4757 19.0187 17.6069C19.0753 17.7382 19.1052 17.8794 19.1065 18.0223C19.1079 18.1652 19.0808 18.3069 19.0267 18.4392C18.9727 18.5715 18.8928 18.6917 18.7917 18.7927C18.6907 18.8938 18.5705 18.9737 18.4382 19.0277C18.3059 19.0818 18.1642 19.1089 18.0213 19.1075C17.8784 19.1062 17.7372 19.0763 17.606 19.0197C17.4747 18.9631 17.3561 18.881 17.257 18.778L16.041 17.562C15.9411 17.4622 15.8618 17.3438 15.8078 17.2134C15.7537 17.083 15.7259 16.9432 15.7259 16.802C15.7259 16.6608 15.7537 16.521 15.8078 16.3906C15.8618 16.2602 15.9411 16.1417 16.041 16.042Z" fill="black"/>
<path d="M5.958 5.958C6.15952 5.75641 6.27272 5.48304 6.27272 5.198C6.27272 4.91296 6.15952 4.63959 5.958 4.438L4.742 3.222C4.53914 3.02678 4.26779 2.91893 3.98627 2.92163C3.70474 2.92433 3.43551 3.03736 3.23644 3.23644C3.03736 3.43551 2.92433 3.70474 2.92163 3.98627C2.91893 4.26779 3.02678 4.53914 3.222 4.742L4.438 5.958C4.53775 6.0579 4.65622 6.13715 4.78663 6.19123C4.91704 6.2453 5.05683 6.27314 5.198 6.27314C5.33917 6.27314 5.47896 6.2453 5.60937 6.19123C5.73978 6.13715 5.85825 6.0579 5.958 5.958Z" fill="black"/>
</g>
</g>
<defs>
<clipPath id="clip0_11_2">
<rect width="22" height="22" fill="white"/>
</clipPath>
</defs>
</svg>
