<svg width="52" height="52" viewBox="0 0 52 52" fill="none" xmlns="http://www.w3.org/2000/svg">
<path d="M15.886 14.82C18.9158 14.82 21.372 12.3173 21.372 9.23C21.372 6.14273 18.9158 3.64 15.886 3.64C12.8562 3.64 10.4 6.14273 10.4 9.23C10.4 12.3173 12.8562 14.82 15.886 14.82Z" stroke="#583ABC" stroke-width="2.6"/>
<path d="M15.886 46.02C18.9158 46.02 21.372 43.5173 21.372 40.43C21.372 37.3427 18.9158 34.84 15.886 34.84C12.8562 34.84 10.4 37.3427 10.4 40.43C10.4 43.5173 12.8562 46.02 15.886 46.02Z" stroke="#583ABC" stroke-width="2.6"/>
<path d="M34.19 30.42C37.2773 30.42 39.78 27.9173 39.78 24.83C39.78 21.7427 37.2773 19.24 34.19 19.24C31.1027 19.24 28.6 21.7427 28.6 24.83C28.6 27.9173 31.1027 30.42 34.19 30.42Z" stroke="#583ABC" stroke-width="2.6"/>
<path d="M10.4 7.8H2.6V10.4H10.4V7.8Z" fill="#583ABC"/>
<path d="M46.8 7.8H26V10.4H46.8V7.8Z" fill="#583ABC"/>
<path d="M23.4 23.4H2.6V26H23.4V23.4Z" fill="#583ABC"/>
<path d="M46.8 23.4H39V26H46.8V23.4Z" fill="#583ABC"/>
<path d="M10.4 39H2.6V41.6H10.4V39Z" fill="#583ABC"/>
<path d="M46.8 39H26V41.6H46.8V39Z" fill="#583ABC"/>
</svg>
