<svg width="512" height="512" viewBox="0 0 512 512" fill="none" xmlns="http://www.w3.org/2000/svg">
<path fill-rule="evenodd" clip-rule="evenodd" d="M245.333 432.277H62.9334C61.8018 432.277 60.7165 431.828 59.9164 431.028C59.1162 430.227 58.6667 429.142 58.6667 428.011V397.077C58.6667 379.349 71.3174 363.733 90.816 350.464C125.632 326.699 181.973 311.723 245.333 311.723C249.577 311.723 253.646 310.037 256.647 307.036C259.648 304.036 261.333 299.966 261.333 295.723C261.333 291.479 259.648 287.409 256.647 284.409C253.646 281.408 249.577 279.723 245.333 279.723C174.464 279.723 111.723 297.451 72.768 324.011C43.0507 344.277 26.6667 370.027 26.6667 397.056V428.011C26.6667 437.629 30.4876 446.854 37.2889 453.655C44.0903 460.456 53.3148 464.277 62.9334 464.277H245.333C249.577 464.277 253.646 462.591 256.647 459.591C259.648 456.59 261.333 452.521 261.333 448.277C261.333 444.034 259.648 439.964 256.647 436.963C253.646 433.963 249.577 432.277 245.333 432.277ZM245.333 26.6665C180.565 26.6665 128 79.2318 128 144C128 208.768 180.565 261.333 245.333 261.333C310.101 261.333 362.667 208.768 362.667 144C362.667 79.2318 310.101 26.6665 245.333 26.6665ZM245.333 58.6665C292.437 58.6665 330.667 96.8958 330.667 144C330.667 191.104 292.437 229.333 245.333 229.333C198.229 229.333 160 191.104 160 144C160 96.8958 198.229 58.6665 245.333 58.6665ZM357.333 373.333V426.667C357.333 430.91 359.019 434.98 362.02 437.98C365.02 440.981 369.09 442.667 373.333 442.667C377.577 442.667 381.647 440.981 384.647 437.98C387.648 434.98 389.333 430.91 389.333 426.667V373.333C389.333 369.09 387.648 365.02 384.647 362.019C381.647 359.019 377.577 357.333 373.333 357.333C369.09 357.333 365.02 359.019 362.02 362.019C359.019 365.02 357.333 369.09 357.333 373.333Z" fill="#12344D"/>
<path d="M373.333 346.667C385.115 346.667 394.667 337.115 394.667 325.333C394.667 313.551 385.115 304 373.333 304C361.551 304 352 313.551 352 325.333C352 337.115 361.551 346.667 373.333 346.667Z" fill="#12344D"/>
<path fill-rule="evenodd" clip-rule="evenodd" d="M373.333 261.333C311.509 261.333 261.333 311.509 261.333 373.333C261.333 435.157 311.509 485.333 373.333 485.333C435.157 485.333 485.333 435.157 485.333 373.333C485.333 311.509 435.157 261.333 373.333 261.333ZM373.333 293.333C417.493 293.333 453.333 329.173 453.333 373.333C453.333 417.493 417.493 453.333 373.333 453.333C329.173 453.333 293.333 417.493 293.333 373.333C293.333 329.173 329.173 293.333 373.333 293.333Z" fill="#12344D"/>
</svg>
