<svg width="22" height="22" viewBox="0 0 22 22" fill="none" xmlns="http://www.w3.org/2000/svg">
<g clip-path="url(#clip0_11_17)">
<mask id="mask0_11_17" style="mask-type:luminance" maskUnits="userSpaceOnUse" x="0" y="0" width="22" height="22">
<path d="M22 0H0V22H22V0Z" fill="white"/>
</mask>
<g mask="url(#mask0_11_17)">
<path d="M11.5861 22C13.6468 22.0215 15.67 21.448 17.4129 20.3482C19.1558 19.2485 20.5443 17.6693 21.4121 15.8C20.2964 16.2872 19.0882 16.526 17.8711 16.5C15.5799 16.4974 13.3833 15.586 11.7632 13.9659C10.143 12.3458 9.23171 10.1492 9.22906 7.858C9.25229 6.27332 9.69562 4.72318 10.5138 3.36584C11.3319 2.0085 12.4956 0.892582 13.8861 0.132002C13.1234 0.0342164 12.3549 -0.00989206 11.5861 1.69524e-06C8.66868 1.69524e-06 5.87078 1.15893 3.80788 3.22183C1.74498 5.28473 0.58606 8.08262 0.58606 11C0.58606 13.9174 1.74498 16.7153 3.80788 18.7782C5.87078 20.8411 8.66868 22 11.5861 22Z" fill="black"/>
</g>
</g>
<defs>
<clipPath id="clip0_11_17">
<rect width="22" height="22" fill="white"/>
</clipPath>
</defs>
</svg>
