<svg width="52" height="52" viewBox="0 0 52 52" fill="none" xmlns="http://www.w3.org/2000/svg">
<path d="M25.9922 34.606C30.7452 34.606 34.5982 30.753 34.5982 26C34.5982 21.247 30.7452 17.394 25.9922 17.394C21.2392 17.394 17.3862 21.247 17.3862 26C17.3862 30.753 21.2392 34.606 25.9922 34.606Z" stroke="#583ABC" stroke-width="2.6"/>
<path d="M48.0688 31.941L42.133 42.2162C39.8372 40.2896 36.881 39.7306 34.5878 41.0566C32.3128 42.3514 31.3222 45.1698 31.8396 48.1H20.111C20.6388 45.1724 19.6378 42.3774 17.3784 41.0566C15.0826 39.702 12.103 40.2792 9.8098 42.2162L3.9 31.941C6.6898 30.8646 8.6242 28.5974 8.6242 25.9766C8.593 23.348 6.6898 21.1146 3.9 20.0616L9.789 9.8384C12.077 11.7416 15.0644 12.3188 17.3862 11.0032C19.643 9.6772 20.6414 6.8562 20.111 3.9H31.8838C31.3872 6.8562 32.3466 9.646 34.6164 10.972C36.9356 12.298 39.8918 11.7416 42.185 9.8644L48.0662 20.0564C45.2504 21.1042 43.3186 23.3688 43.342 26.0234C43.3472 28.6468 45.279 30.888 48.0688 31.941Z" stroke="#583ABC" stroke-width="2.6"/>
</svg>
