<svg width="52" height="52" viewBox="0 0 52 52" fill="none" xmlns="http://www.w3.org/2000/svg">
<path d="M20.02 31.46C25.0458 31.46 29.12 27.3858 29.12 22.36C29.12 17.3342 25.0458 13.26 20.02 13.26C14.9942 13.26 10.92 17.3342 10.92 22.36C10.92 27.3858 14.9942 31.46 20.02 31.46Z" stroke="#583ABC" stroke-width="2.86"/>
<path d="M2.6 47.06C4.42 37.96 11.44 31.46 19.76 31.46C28.34 31.46 35.62 38.48 37.18 47.58" stroke="#583ABC" stroke-width="2.86"/>
<path d="M29.64 10.4C33.28 6.24 40.04 7.28 42.38 12.22C44.72 17.16 40.82 23.14 35.36 23.14C42.9 23.14 48.88 29.38 49.92 36.66" stroke="#583ABC" stroke-width="2.86"/>
</svg>
